<svg xmlns="http://www.w3.org/2000/svg" xmlns:xlink="http://www.w3.org/1999/xlink" width="200" zoomAndPan="magnify" viewBox="0 0 150 149.999998" height="200" preserveAspectRatio="xMidYMid meet" version="1.0"><defs><clipPath id="1f8be81cc6"><path d="M 11.984375 31.015625 L 144.964844 31.015625 L 144.964844 119 L 11.984375 119 Z M 11.984375 31.015625 " clip-rule="nonzero"/></clipPath><clipPath id="2df5dd0bde"><path d="M 52.265625 44.121094 C 52.265625 53.8125 39.101562 71.828125 26.644531 71.828125 C 21.804688 71.828125 19.027344 69.132812 19.027344 64.425781 C 19.027344 52.726562 35.996094 38.714844 49.46875 35.765625 C 51.328125 37.507812 52.265625 40.320312 52.265625 44.121094 M 134.992188 48.152344 C 135.871094 48.644531 137.003906 48.902344 138.285156 48.902344 C 141.570312 48.902344 144.796875 46.582031 144.796875 44.214844 C 144.796875 43.855469 144.730469 42.007812 143.402344 41.011719 C 142.515625 40.339844 141.304688 40.21875 139.800781 40.648438 C 137.5 41.304688 134.21875 44.828125 126.304688 53.332031 C 120.203125 59.882812 110.988281 69.789062 97.246094 83.695312 L 91.871094 89.171875 C 77.6875 103.695312 64.292969 117.417969 54.03125 117.417969 C 51.730469 117.417969 50.128906 115.90625 50.128906 113.742188 C 50.128906 109.480469 57.453125 97.8125 67.929688 85.355469 L 101.75 46.261719 L 99.6875 46.261719 C 95.394531 46.261719 91.347656 48.152344 88.597656 51.453125 C 81.308594 60.183594 76.445312 65.421875 66.746094 75.851562 L 64.328125 78.457031 C 52.261719 91.445312 26.539062 115.699219 18.867188 115.699219 C 18.308594 115.699219 17.023438 115.5 17.023438 113.628906 C 17.023438 109.480469 22.160156 101.398438 47.230469 75.417969 L 47.59375 75.042969 C 56.539062 65.765625 66.6875 55.25 66.6875 44.164062 C 66.6875 37.535156 61.75 33.257812 54.105469 33.257812 L 50.363281 33.660156 L 50.195312 33.6875 C 48.136719 31.996094 45.285156 31.136719 41.523438 31.035156 L 41.039062 31.015625 C 39.980469 31.015625 39.167969 31.070312 38.355469 31.15625 C 30.9375 31.933594 23.164062 36.148438 17.566406 42.558594 L 17.351562 42.800781 L 18.550781 44.375 L 18.867188 44.007812 C 24.660156 37.226562 33.375 32.847656 41.054688 32.847656 C 44.246094 32.847656 46.339844 33.238281 47.988281 34.164062 C 33.875 37.964844 17.128906 52.453125 17.128906 64.632812 C 17.128906 70.339844 20.625 73.746094 26.472656 73.746094 C 40.476562 73.746094 54.160156 54.8125 54.160156 43.828125 C 54.160156 39.898438 53.460938 37.289062 51.851562 35.277344 L 52.140625 35.234375 C 53.003906 35.121094 53.683594 35.027344 54.3125 35.027344 C 60.609375 35.027344 63.9375 38.171875 63.9375 44.121094 C 63.9375 51.464844 55.6875 58.355469 45.246094 67.074219 C 38.820312 72.4375 31.542969 78.515625 25.058594 85.734375 C 15.652344 96.214844 11.984375 102.566406 11.984375 108.367188 C 11.984375 110.75 12.5 112.769531 13.425781 114.285156 C 13.941406 115.136719 14.601562 115.828125 15.359375 116.34375 C 16.351562 117.015625 17.53125 117.375 18.867188 117.375 C 24.714844 117.375 39.296875 106.046875 59.121094 86.15625 C 53.6875 94.257812 47.78125 104.503906 47.78125 112.285156 C 47.78125 116.355469 50.234375 118.984375 54.03125 118.984375 C 65.761719 118.984375 79.335938 106.90625 97.445312 87.410156 C 117.890625 65.398438 133.113281 49.480469 134.984375 48.160156 " clip-rule="nonzero"/></clipPath></defs><g clip-path="url(#1f8be81cc6)"><g clip-path="url(#2df5dd0bde)"><path fill="#44481f" d="M 11.984375 31.015625 L 144.964844 31.015625 L 144.964844 118.984375 L 11.984375 118.984375 Z M 11.984375 31.015625 " fill-opacity="1" fill-rule="nonzero"/></g></g></svg>